<?xml version="1.0" standalone="no"?><!DOCTYPE svg PUBLIC "-//W3C//DTD SVG 1.1//EN" "http://www.w3.org/Graphics/SVG/1.1/DTD/svg11.dtd"><svg t="1662610372153" class="icon" viewBox="0 0 1024 1024" version="1.1" xmlns="http://www.w3.org/2000/svg" p-id="88753" data-spm-anchor-id="a313x.7781069.0.i86" xmlns:xlink="http://www.w3.org/1999/xlink" width="200" height="200"><path d="M800.213333 434.346667a298.666667 298.666667 0 0 0-561.92-41.6A213.333333 213.333333 0 0 0 298.666667 810.666667h448a192 192 0 0 0 53.546666-376.32zM746.666667 725.333333H298.666667a128 128 0 0 1 0-256h4.266666A213.333333 213.333333 0 0 1 725.333333 512a7.253333 7.253333 0 0 1 0 2.133333 120.96 120.96 0 0 1 21.333334-2.133333 106.666667 106.666667 0 0 1 0 213.333333z m-192-184.32V661.333333h-85.333334v-120.32h-93.013333L512 405.333333l135.68 135.68z" p-id="88754" data-spm-anchor-id="a313x.7781069.0.i87" class="selected" fill="#7dc5eb"></path></svg>