<?xml version="1.0" standalone="no"?><!DOCTYPE svg PUBLIC "-//W3C//DTD SVG 1.1//EN" "http://www.w3.org/Graphics/SVG/1.1/DTD/svg11.dtd"><svg t="1662516798761" class="icon" viewBox="0 0 1024 1024" version="1.1" xmlns="http://www.w3.org/2000/svg" p-id="28580" xmlns:xlink="http://www.w3.org/1999/xlink" width="100" height="100"><path d="M657.076 255.043s-52.422-111.067-6.285-129.677 45.959 68.524 87.245 65.735 76.258-72.307 121.189-27.376c31.646 31.646-78.56 118.618-26.588 132.425 51.972 13.807 79.446 52.693 64.592 78.928-16.367 28.907-177.845-11.896-215.484-29.405-37.642-17.508-24.669-90.63-24.669-90.63z" fill="#F4DD50" p-id="28581"></path><path d="M862.259 400.142c-57.188 0-156.77-26.878-186.843-40.868-14.384-6.691-32.147-23.298-35.083-64.413-1.13-15.829 0.301-30.359 1.254-37.615-8.236-18.424-35.063-83.625-20.41-121.05 4.581-11.7 12.881-20.255 24.002-24.741 6.084-2.454 12.062-3.698 17.769-3.698 25.418 0 38.283 22.838 48.62 41.188 9.263 16.443 15.975 27.222 24.544 27.222 0.3 0 0.603-0.011 0.913-0.031 11.06-0.747 23.354-9.408 36.37-18.578 16.687-11.756 33.942-23.912 54.6-23.912 14.839 0 28.915 6.552 41.836 19.473 11.217 11.217 13.216 26.817 5.942 46.368-5.062 13.605-13.994 27.892-22.632 41.709-6.073 9.712-11.809 18.887-15.621 26.874-3.663 7.676-4.059 11.234-4.048 12.46 0.476 0.268 1.4 0.695 3.016 1.124 36.23 9.625 64.364 30.843 75.26 56.76 6.451 15.346 5.931 30.992-1.467 44.056-8.971 15.84-31.703 17.672-48.022 17.672zM662.948 137.757c-1.843 0-4.045 0.511-6.546 1.52-2.33 0.94-5.263 2.682-7.29 7.857-8.715 22.256 8.58 74.073 21.528 101.507a15.008 15.008 0 0 1 1.205 9.022c-2.802 16.028-5.842 64.146 16.224 74.41 27.653 12.864 123.648 38.069 174.189 38.069 15.58 0 21.012-2.422 22.285-3.146 2.416-4.794 2.264-10.494-0.453-16.958-5.392-12.826-23.112-30.839-55.307-39.392-14.614-3.882-20.695-12.326-23.223-18.725-7.557-19.131 6.205-41.144 22.141-66.631 10.341-16.541 27.65-44.224 20.915-50.959-9.579-9.578-16.357-10.686-20.624-10.686-11.151 0-23.863 8.956-37.321 18.437-15.821 11.146-32.181 22.672-51.626 23.985-0.979 0.066-1.966 0.1-2.934 0.1-26.743 0-40.017-23.564-50.682-42.498-8.546-15.172-15.162-25.912-22.481-25.912z" fill="#3D100B" p-id="28582"></path><path d="M255.039 657.08s-111.067-52.422-129.677-6.285 68.524 45.959 65.735 87.245c-2.788 41.285-72.307 76.258-27.376 121.189 31.646 31.646 118.618-78.56 132.425-26.588 13.807 51.972 52.693 79.446 78.928 64.592 28.907-16.367-11.896-177.845-29.405-215.484-17.509-37.641-90.63-24.669-90.63-24.669z" fill="#F4DD50" p-id="28583"></path><path d="M359.679 916.243h-0.001c-16.255 0-33.085-8.148-47.39-22.943-14.024-14.504-24.619-34.149-30.639-56.81-0.427-1.607-0.852-2.531-1.12-3.009h-0.009c-7.881 0-25.319 10.902-39.331 19.663-21.154 13.226-43.027 26.901-62.666 26.901-9.942 0-18.729-3.531-25.409-10.211-16.428-16.428-22.505-34.593-18.062-53.991 3.567-15.572 13.193-29.233 22.501-42.445 9.169-13.015 17.831-25.308 18.578-36.369 0.615-9.112-9.862-15.697-27.191-25.458-11.207-6.313-22.795-12.84-30.904-22.201-10.895-12.576-13.172-27.855-6.584-44.186 5.223-12.948 18.321-28.382 51.064-28.382 35.68 0 80.757 18.629 94.698 24.795a201.048 201.048 0 0 1 25.602-1.676c39.213 0 65.65 12.275 76.454 35.5 9.046 19.447 23.958 69.388 33.254 119.299 5.019 26.945 7.58 49.555 7.613 67.202 0.031 16.448-1.768 39.357-17.672 48.362-6.983 3.954-14.65 5.959-22.786 5.959zM280.52 803.482c7.036 0 24.055 2.466 30.123 25.306 9.554 35.963 32.434 57.455 49.035 57.455 2.674 0 5.086-0.561 7.352-1.713 2.878-4.541 7.011-28.267-5.163-90.413-8.777-44.802-22.301-89.928-29.798-106.043-7.348-15.795-34.012-18.153-49.253-18.153-14.122 0-25.047 1.91-25.156 1.929a14.996 14.996 0 0 1-9.023-1.204c-0.5-0.236-51.035-23.844-86.121-23.844-19.369 0-22.285 7.229-23.243 9.605-4.015 9.952-1.562 14.407 24.391 29.026 9.622 5.42 19.571 11.024 27.517 18.491 10.766 10.118 15.773 21.936 14.882 35.127-1.313 19.447-12.839 35.806-23.985 51.626-19.708 27.972-25.481 40.214-7.751 57.945 0.721 0.721 1.639 1.424 4.196 1.424 11.032 0 30.843-12.386 46.762-22.338 19.926-12.459 38.748-24.226 55.235-24.226z" fill="#3D100B" p-id="28584"></path><path d="M612.676 795.408c-81.62 81.62-213.951 81.62-295.571 0l-89.564-89.564c-81.62-81.62-81.62-213.951 0-295.571l174.66-174.66c81.62-81.62 213.951-81.62 295.571 0l89.564 89.564c81.62 81.62 81.62 213.951 0 295.571l-174.66 174.66z" fill="#E7402E" p-id="28585"></path><path d="M464.89 871.622c-59.833 0-116.083-23.3-158.392-65.608l-89.564-89.564c-42.308-42.308-65.608-98.559-65.608-158.392s23.3-116.084 65.608-158.392l174.66-174.66c42.308-42.308 98.559-65.608 158.392-65.608s116.084 23.3 158.392 65.608l89.564 89.564c42.308 42.308 65.608 98.559 65.608 158.392s-23.3 116.084-65.608 158.392c-5.858 5.857-15.355 5.857-21.213 0-5.858-5.858-5.858-15.355 0-21.213 36.642-36.642 56.821-85.359 56.821-137.179 0-51.819-20.18-100.537-56.821-137.179l-89.564-89.564c-75.641-75.641-198.717-75.641-274.357 0l-174.66 174.66c-75.641 75.641-75.641 198.717 0 274.358l89.564 89.564c75.641 75.641 198.718 75.64 274.358 0l62.201-62.2c5.858-5.858 15.355-5.858 21.213 0 5.858 5.858 5.858 15.355 0 21.213l-62.201 62.2c-42.309 42.308-98.56 65.608-158.393 65.608z" fill="#3D100B" p-id="28586"></path><path d="M720.876 702.207a14.946 14.946 0 0 1-10.606-4.394c-5.858-5.858-5.858-15.355 0-21.213l30.5-30.5c5.857-5.858 15.355-5.858 21.213 0 5.858 5.858 5.858 15.355 0 21.213l-30.5 30.5a14.95 14.95 0 0 1-10.607 4.394z" fill="#3D100B" p-id="28587"></path><path d="M398.055 337.764a14.946 14.946 0 0 1-10.606-4.394c-5.858-5.857-5.858-15.355 0-21.213l22.147-22.147c25.546-25.546 57.161-44.706 91.428-55.409 33.151-10.355 68.832-12.868 103.182-7.268 8.176 1.333 13.724 9.042 12.391 17.218s-9.039 13.725-17.218 12.391c-61.532-10.033-124.549 10.26-168.569 54.28l-22.146 22.147a14.955 14.955 0 0 1-10.609 4.395zM329.555 406.264a14.946 14.946 0 0 1-10.606-4.394c-5.858-5.858-5.858-15.355 0-21.213l17.5-17.5c5.857-5.858 15.355-5.858 21.213 0 5.858 5.858 5.858 15.355 0 21.213l-17.5 17.5a14.95 14.95 0 0 1-10.607 4.394z" fill="#FFFFFF" p-id="28588"></path><path d="M511.472 343.19c-96.093 0-173.991 77.899-173.991 173.991s77.899 173.991 173.991 173.991 173.991-77.899 173.991-173.991S607.565 343.19 511.472 343.19z m1 259.487l-85.496-85.496 85.496-85.496 85.496 85.496-85.496 85.496z" fill="#F4DD50" p-id="28589"></path></svg>